# xmcd
#
# Track frame offsets:
#	188
#	13613
#	25838
#	38363
#	50363
#	62513
#	79013
#	87188
#	100463
#	113288
#	126263
#	137288
#	150038
#	161663
#
# Disc length: 2314 seconds
#
# Revision: 1
# Processed by: cddbd v1.4PL0 Copyright (c) Steve Scherf et al.
# Submitted via: audiograbber 1.81.03
#
DISCID=9109080e
DTITLE=Varis - Soul classics CD1
DYEAR=1991
DGENRE=Disco
TTITLE0=When a man loves a womann
TTITLE1=Dancing in the street
TTITLE2=Slip away
TTITLE3=Save the last dance for me
TTITLE4=Will you love me tomorrow
TTITLE5=If you don't kwow me by now
TTITLE6=Yakety yak
TTITLE7=Jinny Mack
TTITLE8=Baby
TTITLE9=Rescue me
TTITLE10=The shoop shoop song
TTITLE11=My guy
TTITLE12=Tell mama
TTITLE13=Hello stranger
EXTD=
EXTT0=
EXTT1=
EXTT2=
EXTT3=
EXTT4=
EXTT5=
EXTT6=
EXTT7=
EXTT8=
EXTT9=
EXTT10=
EXTT11=
EXTT12=
EXTT13=
PLAYORDER=
